<svg width="26" height="26" viewBox="0 0 26 26" fill="none" xmlns="http://www.w3.org/2000/svg">
<path d="M5.694 0H20.306C23.4508 0 26 2.54922 26 5.694V20.306C26 23.4508 23.4508 26 20.306 26H5.694C2.54922 26 0 23.4508 0 20.306V5.694C0 2.54922 2.54922 0 5.694 0Z" fill="url(#paint0_linear_65_18)"/>
<path d="M8.33235 18.8713L8.33479 18.8721L7.44581 20.4118C7.12132 20.9738 6.40267 21.1664 5.84062 20.8419C5.27867 20.5174 5.08601 19.7988 5.4105 19.2367L6.06538 18.1025L6.12824 17.9936C6.24047 17.8323 6.51743 17.5538 7.07146 17.6062C7.07146 17.6062 8.37521 17.7477 8.46956 18.4253C8.46956 18.4253 8.48236 18.6483 8.33235 18.8713ZM20.9406 14.9388H18.1686C17.9798 14.9261 17.8974 14.8587 17.8649 14.8195L17.8629 14.8159L14.8955 9.67623L14.8917 9.67877L14.7137 9.42364C14.422 8.97758 13.9589 10.1183 13.9589 10.1183C13.4059 11.3895 14.0374 12.8346 14.2575 13.2714L18.3791 20.4103C18.7035 20.9722 19.4222 21.1649 19.9843 20.8403C20.5463 20.5158 20.7389 19.7971 20.4143 19.2351L19.3838 17.45C19.3638 17.4068 19.329 17.2894 19.5404 17.2888H20.9406C21.5896 17.2888 22.1157 16.7627 22.1157 16.1138C22.1157 15.4648 21.5896 14.9387 20.9406 14.9387V14.9388ZM15.5564 16.5362C15.5564 16.5362 15.7044 17.2888 15.1319 17.2888H4.88431C4.23532 17.2888 3.70923 16.7627 3.70923 16.1138C3.70923 15.4648 4.23532 14.9387 4.88431 14.9387H7.51884C7.94418 14.9141 8.04493 14.6685 8.04493 14.6685L8.04737 14.6697L11.4863 8.71331L11.4853 8.71311C11.5479 8.59804 11.4957 8.48926 11.4867 8.4721L10.3509 6.50494C10.0264 5.94299 10.219 5.22423 10.781 4.89984C11.3431 4.57535 12.0617 4.76781 12.3862 5.32986L12.9129 6.24219L13.4387 5.33148C13.7632 4.76954 14.4819 4.57687 15.0439 4.90147C15.606 5.22596 15.7985 5.94451 15.474 6.50656L10.6886 14.7951C10.6677 14.8456 10.6613 14.9248 10.817 14.9387H13.6774L13.678 14.9666C13.678 14.9666 15.3312 14.9923 15.5564 16.5362Z" fill="white"/>
<defs>
<linearGradient id="paint0_linear_65_18" x1="13" y1="0" x2="13" y2="26" gradientUnits="userSpaceOnUse">
<stop stop-color="#17C9FB"/>
<stop offset="1" stop-color="#1A74E8"/>
</linearGradient>
</defs>
</svg>
