<svg width="26" height="26" viewBox="0 0 26 26" fill="none" xmlns="http://www.w3.org/2000/svg">
<path d="M2.4375 3.02096V22.978C2.43763 23.0213 2.45055 23.0636 2.47462 23.0996C2.4987 23.1356 2.53286 23.1636 2.57283 23.1803C2.6128 23.1969 2.6568 23.2014 2.6993 23.1932C2.7418 23.1849 2.78093 23.1643 2.81176 23.1339L13.2031 13L2.81176 2.86506C2.78093 2.83466 2.7418 2.81404 2.6993 2.80579C2.6568 2.79754 2.6128 2.80201 2.57283 2.81866C2.53286 2.83531 2.4987 2.86339 2.47462 2.89938C2.45055 2.93537 2.43763 2.97766 2.4375 3.02096Z" fill="#25BBC3"/>
<path d="M17.5601 8.83597L4.53067 1.65753L4.52255 1.65296C4.29809 1.53108 4.08481 1.83476 4.26864 2.01147L14.4823 11.7777L17.5601 8.83597Z" fill="#A7E9A4"/>
<path d="M4.26972 23.9886C4.08488 24.1653 4.29816 24.469 4.52363 24.3471L4.53175 24.3425L17.5602 17.1641L14.4823 14.2213L4.26972 23.9886Z" fill="#D3466A"/>
<path d="M22.8201 11.7305L19.1816 9.72668L15.7605 13L19.1816 16.2719L22.8201 14.2696C23.8098 13.7227 23.8098 12.2774 22.8201 11.7305Z" fill="#FFA174"/>
</svg>
